<svg width="1080" height="443" viewBox="0 0 1080 443" fill="none" xmlns="http://www.w3.org/2000/svg">
<g filter="url(#filter0_d)">
<rect y="-137.028" width="1081.27" height="495.943" fill="url(#paint0_linear)"/>
<path d="M88.334 198.045L-30.2608 374.691L224.498 164.806L134.932 119.209L232.479 -3.97192L137.072 -52.5418L24.8277 165.715L88.334 198.045Z" fill="white" fill-opacity="0.15"/>
<path d="M477.464 339.679C512.366 339.679 537.646 317.7 538.778 286.571H505.574C503.593 301.192 492.462 310.814 477.558 310.814C458.504 310.814 446.901 294.401 446.901 267.8C446.901 241.293 458.504 225.068 477.464 225.068C492.368 225.068 503.593 235.067 505.385 249.877H538.684C537.646 219.031 511.705 196.203 477.464 196.203C436.619 196.203 411.622 223.465 411.622 267.894C411.622 312.323 436.713 339.679 477.464 339.679ZM561.795 336H595.093V276.478C595.093 264.404 601.885 256.197 613.299 256.197C624.335 256.197 630.278 263.083 630.278 276.101V336H663.576V268.554C663.576 243.085 650.464 229.03 627.637 229.03C612.544 229.03 600.847 236.388 596.225 248.462H594.433V191.676H561.795V336ZM729.513 314.304C721.117 314.304 715.552 310.154 715.552 303.456C715.552 297.136 720.74 293.269 730.645 292.514L748.284 291.382V298.268C748.284 307.324 740.078 314.304 729.513 314.304ZM717.344 337.604C730.645 337.604 742.153 331.944 746.869 322.982H748.662V336H781.111V264.404C781.111 241.765 764.603 228.558 735.644 228.558C707.251 228.558 688.668 241.199 687.159 261.574H717.156C719.325 256.008 724.985 253.084 733.758 253.084C743.002 253.084 748.284 257.329 748.284 264.404V272.61L725.362 273.931C698.29 275.535 683.386 286.666 683.386 305.814C683.386 325.058 697.158 337.604 717.344 337.604ZM806.486 336H839.784V280.44C839.784 265.819 849.595 257.518 864.31 257.518C869.404 257.518 876.101 258.367 878.648 259.404V231.011C876.196 229.973 871.007 229.407 866.574 229.407C853.462 229.407 843.274 237.708 840.728 248.273H838.935V231.011H806.486V336ZM942.792 309.965C930.058 309.965 922.7 299.589 922.7 282.798C922.7 266.007 930.152 255.631 942.792 255.631C955.527 255.631 963.168 266.007 963.168 282.892C963.168 299.683 955.621 309.965 942.792 309.965ZM941.849 375.524C975.242 375.524 996.372 359.771 996.372 334.774V231.011H963.828V247.896H962.036C956.753 236.388 944.962 229.407 931.001 229.407C904.494 229.407 888.458 249.877 888.458 282.892C888.458 314.493 904.494 334.491 930.246 334.491C945.151 334.491 955.81 328.831 961.187 317.983H962.979V336.943C962.979 347.32 955.621 353.357 942.792 353.357C932.322 353.357 925.247 349.772 924.021 344.112H891.571C892.892 362.978 912.607 375.524 941.849 375.524ZM1069.57 252.235C1080.7 252.235 1087.68 259.499 1088.25 271.761H1050.14C1050.99 259.876 1058.63 252.235 1069.57 252.235ZM1089.48 305.06C1087.21 311.191 1080.51 314.776 1070.8 314.776C1058.06 314.776 1050.23 306.286 1049.95 292.608V290.91H1120.6V281.666C1120.6 248.179 1101.74 228.558 1069.38 228.558C1036.84 228.558 1017.12 249.594 1017.12 284.213C1017.12 318.643 1036.37 338.453 1069.85 338.453C1097.02 338.453 1116.26 325.529 1119.94 305.06H1089.48Z" fill="white" fill-opacity="0.15"/>
</g>
<defs>
<filter id="filter0_d" x="-75" y="-137.028" width="1199.6" height="579.52" filterUnits="userSpaceOnUse" color-interpolation-filters="sRGB">
<feFlood flood-opacity="0" result="BackgroundImageFix"/>
<feColorMatrix in="SourceAlpha" type="matrix" values="0 0 0 0 0 0 0 0 0 0 0 0 0 0 0 0 0 0 127 0"/>
<feOffset dy="4"/>
<feGaussianBlur stdDeviation="2"/>
<feColorMatrix type="matrix" values="0 0 0 0 0 0 0 0 0 0 0 0 0 0 0 0 0 0 0.25 0"/>
<feBlend mode="normal" in2="BackgroundImageFix" result="effect1_dropShadow"/>
<feBlend mode="normal" in="SourceGraphic" in2="effect1_dropShadow" result="shape"/>
</filter>
<linearGradient id="paint0_linear" x1="-73.5265" y1="-226.413" x2="848.405" y2="394.388" gradientUnits="userSpaceOnUse">
<stop stop-color="#52B2D0"/>
<stop offset="1" stop-color="#069DFF"/>
</linearGradient>
</defs>
</svg>
