<svg width="867" height="217" viewBox="0 0 867 217" fill="none" xmlns="http://www.w3.org/2000/svg">
<g filter="url(#filter0_d)">
<rect x="30" y="30" width="792" height="142" fill="#069DFF"/>
</g>
<path d="M382.916 120C389.082 120 392.845 116.857 392.845 111.792C392.845 108.028 390.163 105.226 386.279 104.865V104.505C389.182 104.044 391.424 101.362 391.424 98.3188C391.424 93.8745 388.121 91.1118 382.635 91.1118H370.563V120H382.916ZM375.729 95.2158H381.374C384.497 95.2158 386.319 96.6973 386.319 99.2397C386.319 101.842 384.377 103.264 380.713 103.264H375.729V95.2158ZM375.729 115.896V106.987H381.534C385.478 106.987 387.56 108.509 387.56 111.392C387.56 114.334 385.538 115.896 381.734 115.896H375.729ZM417.169 115.536H403.636V107.448H416.428V103.244H403.636V95.5762H417.169V91.1118H398.471V120H417.169V115.536ZM435.627 120.721C442.293 120.721 447.178 116.737 447.859 110.831H442.774C442.073 114.074 439.291 116.116 435.627 116.116C430.702 116.116 427.639 112.072 427.639 105.546C427.639 99.0396 430.702 94.9956 435.607 94.9956C439.25 94.9956 442.033 97.2378 442.754 100.701H447.839C447.238 94.6753 442.173 90.3911 435.607 90.3911C427.419 90.3911 422.354 96.1768 422.354 105.566C422.354 114.915 427.439 120.721 435.627 120.721ZM466.077 90.3911C457.688 90.3911 452.383 96.2168 452.383 105.546C452.383 114.875 457.588 120.721 466.077 120.721C474.505 120.721 479.71 114.855 479.71 105.546C479.71 96.2168 474.465 90.3911 466.077 90.3911ZM466.077 94.9756C471.202 94.9756 474.425 99.0796 474.425 105.546C474.425 111.992 471.222 116.136 466.077 116.136C460.852 116.136 457.668 111.992 457.668 105.546C457.668 99.0796 460.932 94.9756 466.077 94.9756ZM515.465 120V91.1118H509.419L500.73 112.152H500.37L491.682 91.1118H485.636V120H490.44V99.6802H490.721L498.708 118.879H502.392L510.38 99.6802H510.66V120H515.465ZM541.29 115.536H527.757V107.448H540.549V103.244H527.757V95.5762H541.29V91.1118H522.592V120H541.29V115.536ZM577.265 120H582.811L572.541 91.1118H566.735L556.485 120H561.71L564.192 112.613H574.823L577.265 120ZM569.357 96.6172H569.698L573.622 108.529H565.394L569.357 96.6172ZM623.07 120V91.1118H617.925V103.063H603.871V91.1118H598.706V120H603.871V107.528H617.925V120H623.07ZM642.689 90.3911C634.301 90.3911 628.996 96.2168 628.996 105.546C628.996 114.875 634.201 120.721 642.689 120.721C651.117 120.721 656.322 114.855 656.322 105.546C656.322 96.2168 651.077 90.3911 642.689 90.3911ZM642.689 94.9756C647.814 94.9756 651.037 99.0796 651.037 105.546C651.037 111.992 647.834 116.136 642.689 116.136C637.464 116.136 634.281 111.992 634.281 105.546C634.281 99.0796 637.544 94.9756 642.689 94.9756ZM660.927 112.152C661.187 117.397 665.571 120.721 672.198 120.721C679.205 120.721 683.549 117.217 683.549 111.592C683.549 107.188 681.086 104.745 675.221 103.424L671.897 102.663C668.314 101.842 666.853 100.701 666.853 98.7593C666.853 96.2969 669.055 94.6953 672.378 94.6953C675.541 94.6953 677.783 96.2969 678.144 98.8394H683.088C682.848 93.8745 678.464 90.3911 672.398 90.3911C665.932 90.3911 661.647 93.8745 661.647 99.1196C661.647 103.424 664.11 106.026 669.355 107.208L673.099 108.068C676.802 108.929 678.384 110.15 678.384 112.232C678.384 114.655 675.921 116.396 672.518 116.396C668.854 116.396 666.292 114.735 665.972 112.152H660.927ZM701.707 120V95.5762H710.615V91.1118H687.653V95.5762H696.542V120H701.707Z" fill="white"/>
<path d="M231.578 101.264L213.668 93.6479L213.795 135.607L231.663 135.565L231.578 101.264Z" fill="#F8F8F8"/>
<path d="M209.195 86.8763L209.132 65L182.319 74.6619L182.404 95.167L191.327 98.3524L191.433 135.692L200.377 135.65L209.322 135.608L209.195 91.7494V86.8763Z" fill="#F8F8F8"/>
<path d="M182.404 99.9139L177.931 98.2896L160 91.9819L160.127 135.756L178.016 135.713L186.96 135.692L186.855 101.475L182.404 99.9139Z" fill="#F8F8F8"/>
<path fill-rule="evenodd" clip-rule="evenodd" d="M244.877 119.309L248.128 122.589L253.004 122.589L253.033 116L248.128 116L244.877 119.309ZM245.776 122.56L243.222 122.589L240 119.309L243.251 116.058L245.689 116.058L242.496 119.309L245.776 122.56Z" fill="#F8F8F8"/>
<rect x="264" y="97" width="23" height="39" fill="#F8F8F8"/>
<path d="M281.434 115.103H276.224L278.893 106L270 119.004H275.209L272.541 128.107L281.434 115.103Z" fill="#069DFF"/>
<defs>
<filter id="filter0_d" x="0.105261" y="0.105261" width="866.737" height="216.737" filterUnits="userSpaceOnUse" color-interpolation-filters="sRGB">
<feFlood flood-opacity="0" result="BackgroundImageFix"/>
<feColorMatrix in="SourceAlpha" type="matrix" values="0 0 0 0 0 0 0 0 0 0 0 0 0 0 0 0 0 0 127 0"/>
<feOffset dx="7.47368" dy="7.47368"/>
<feGaussianBlur stdDeviation="18.6842"/>
<feColorMatrix type="matrix" values="0 0 0 0 0.0235294 0 0 0 0 0.615686 0 0 0 0 1 0 0 0 0.7 0"/>
<feBlend mode="normal" in2="BackgroundImageFix" result="effect1_dropShadow"/>
<feBlend mode="normal" in="SourceGraphic" in2="effect1_dropShadow" result="shape"/>
</filter>
</defs>
</svg>
