<svg width="853" height="835" viewBox="0 0 853 835" fill="none" xmlns="http://www.w3.org/2000/svg">
<path d="M383.758 834.069C563.016 834.069 708.334 825.016 708.334 813.848C708.334 802.681 563.016 793.628 383.758 793.628C204.499 793.628 59.1815 802.681 59.1815 813.848C59.1815 825.016 204.499 834.069 383.758 834.069Z" fill="#91DEFF"/>
<path opacity="0.8" d="M383.758 834.069C563.016 834.069 708.334 825.016 708.334 813.848C708.334 802.681 563.016 793.628 383.758 793.628C204.499 793.628 59.1815 802.681 59.1815 813.848C59.1815 825.016 204.499 834.069 383.758 834.069Z" fill="white"/>
<path d="M627.663 44.9478H301.301C278.769 44.9478 260.504 63.2135 260.504 85.7455V774.751C260.504 797.283 278.769 815.549 301.301 815.549H627.663C650.195 815.549 668.46 797.283 668.46 774.751V85.7455C668.46 63.2135 650.195 44.9478 627.663 44.9478Z" fill="#263238"/>
<path d="M650.319 129.567H278.624V730.93H650.319V129.567Z" fill="white" stroke="#263238" stroke-width="0.674438" stroke-miterlimit="10"/>
<path d="M506.107 259.507C525.473 240.142 525.473 208.744 506.107 189.378C486.742 170.013 455.344 170.013 435.978 189.378C416.613 208.744 416.613 240.142 435.978 259.507C455.344 278.873 486.742 278.873 506.107 259.507Z" fill="#91DEFF"/>
<path d="M495.731 249.141L481.161 240.774V233.862C483.271 231.316 484.799 228.342 485.639 225.147C486.141 225.325 486.669 225.416 487.201 225.418C489.008 225.418 490.156 219.831 490.35 215.841C492.453 211.4 489.588 208.8 489.588 208.8C489.588 208.8 490.776 207.615 491.563 202.866C492.35 198.116 488.788 200.098 486.013 195.747C483.239 191.397 481.251 186.66 472.14 186.66C469.629 186.577 467.152 187.25 465.029 188.591C462.907 189.931 461.239 191.878 460.24 194.177C457.972 194.185 455.713 194.448 453.504 194.962C450.716 195.747 449.929 204.848 452.303 208.414C453.366 210.362 453.934 212.541 453.955 214.76C453.323 213.987 452.665 213.781 452.303 215.532C451.516 219.484 454.691 225.019 454.691 225.019L456.33 224.555C457.156 227.97 458.749 231.152 460.989 233.862V240.774L446.418 249.141C444.717 250.121 443.303 251.53 442.32 253.227C441.337 254.924 440.819 256.848 440.817 258.808V263.597C449.483 270.274 460.124 273.896 471.075 273.896C482.025 273.896 492.667 270.274 501.333 263.597V258.808C501.334 256.848 500.816 254.922 499.833 253.225C498.85 251.528 497.435 250.119 495.731 249.141Z" fill="#263238"/>
<g style="mix-blend-mode:multiply">
<path d="M650.319 130.365H278.624V153.651H650.319V130.365Z" fill="#91DEFF"/>
</g>
<path d="M504.891 87.4669H424.052C422.593 87.4669 421.193 86.8873 420.162 85.8556C419.13 84.824 418.55 83.4247 418.55 81.9656C418.55 80.5066 419.13 79.1073 420.162 78.0756C421.193 77.044 422.593 76.4644 424.052 76.4644H504.891C506.35 76.4644 507.75 77.044 508.781 78.0756C509.813 79.1073 510.393 80.5066 510.393 81.9656C510.393 83.4247 509.813 84.824 508.781 85.8556C507.75 86.8873 506.35 87.4669 504.891 87.4669Z" fill="#91DEFF" stroke="#263238" stroke-width="0.674438" stroke-linecap="round" stroke-linejoin="round"/>
<path d="M486.519 764.903C486.523 760.541 485.233 756.275 482.812 752.646C480.391 749.018 476.948 746.189 472.918 744.517C468.889 742.846 464.454 742.408 460.175 743.258C455.897 744.108 451.966 746.208 448.882 749.292C445.797 752.377 443.697 756.307 442.847 760.586C441.997 764.865 442.435 769.299 444.107 773.329C445.778 777.358 448.607 780.801 452.236 783.222C455.865 785.643 460.13 786.933 464.492 786.929C470.332 786.924 475.932 784.601 480.061 780.472C484.191 776.342 486.513 770.743 486.519 764.903Z" fill="#91DEFF"/>
<path d="M475.663 753.732H453.322V776.074H475.663V753.732Z" fill="#91DEFF" stroke="#263238" stroke-width="0.674438" stroke-linecap="round" stroke-linejoin="round"/>
<path d="M179.811 364.044L110.667 341.472L104.515 325.22L90.4677 324.779L64.9769 319.95L68.0425 325.22L100.126 348.506L108.042 352.454L180.357 390.228L179.811 364.044Z" fill="white" stroke="#263238" stroke-width="0.506291" stroke-miterlimit="10"/>
<path d="M104.515 325.22L97.9217 321.272L84.7563 326.102L86.9401 328.726L104.515 325.22Z" fill="white" stroke="#263238" stroke-width="0.506291" stroke-linejoin="round"/>
<path d="M179.811 364.044L110.667 341.472L104.515 325.22L90.4677 324.779L64.9769 319.95L68.0425 325.22L100.126 348.506L108.042 352.454L180.357 390.228L179.811 364.044Z" fill="white"/>
<path opacity="0.5" d="M179.811 364.044L110.667 341.472L104.515 325.22L90.4677 324.779L64.9769 319.95L68.0425 325.22L100.126 348.506L108.042 352.454L180.357 390.228L179.811 364.044Z" fill="#0096EB" stroke="#263238" stroke-width="0.506291" stroke-miterlimit="10"/>
<path d="M179.811 364.044L110.667 341.472L104.515 325.22L90.4677 324.779L64.9769 319.95L68.0425 325.22L100.126 348.506L108.042 352.454L180.357 390.228L179.811 364.044Z" stroke="#263238" stroke-width="0.506291" stroke-miterlimit="10"/>
<path d="M104.515 325.22L97.9217 321.272L84.7563 326.102L86.9401 328.726L104.515 325.22Z" fill="white"/>
<path opacity="0.5" d="M104.515 325.22L97.9217 321.272L84.7563 326.102L86.9401 328.726L104.515 325.22Z" fill="#0096EB" stroke="#263238" stroke-width="0.506291" stroke-linejoin="round"/>
<path d="M104.515 325.22L97.9217 321.272L84.7563 326.102L86.9401 328.726L104.515 325.22Z" stroke="#263238" stroke-width="0.506291" stroke-linejoin="round"/>
<path d="M194.488 217.546C194.488 217.546 193.417 226.994 196.084 233.063C198.751 239.131 213.554 259.687 213.554 259.687L185.921 281.839C185.921 281.839 174.457 258.742 172.273 255.005C170.089 251.267 167.465 235.183 174.583 223.656C181.701 212.128 191.948 209.021 194.488 217.546Z" fill="white"/>
<g style="mix-blend-mode:multiply" opacity="0.5">
<path d="M180.294 247.908L192.284 272.769L185.9 281.861L173.848 260.339L180.294 247.908Z" fill="#0096EB"/>
</g>
<path d="M194.488 217.546C194.488 217.546 193.417 226.994 196.084 233.063C198.751 239.131 213.554 259.687 213.554 259.687L185.921 281.839C185.921 281.839 174.457 258.742 172.273 255.005C170.089 251.267 167.465 235.183 174.583 223.656C181.701 212.128 191.948 209.021 194.488 217.546Z" stroke="#263238" stroke-width="0.506291" stroke-miterlimit="10"/>
<path d="M203.055 200.244C201.354 189.745 189.323 168.391 170.236 169.21C157.848 169.756 152.053 172.255 146.677 175.299C142.296 177.881 138.212 180.937 134.499 184.412C125.176 195.604 121.901 198.669 123.706 207.236C123.558 210.653 124.094 214.065 125.281 217.273C128.137 224.895 130.09 229.871 132.567 233.504C131.811 237.052 129.838 246.417 129.733 248.559C129.628 250.7 136.032 249.21 139.265 248.391C145.271 261.829 156.273 271.152 159.696 272.223C165.659 274.091 175.087 264.286 180.084 256.685C185.081 249.084 181.302 240.538 181.323 237.136C181.344 233.735 192.557 226.26 196.714 223.887C200.871 221.514 204.735 210.722 203.055 200.244Z" fill="white"/>
<g style="mix-blend-mode:multiply" opacity="0.5">
<path d="M123.79 207.236C123.642 210.653 124.178 214.065 125.365 217.273C128.221 224.895 130.174 229.871 132.651 233.504C131.895 237.052 129.922 246.417 129.817 248.559C129.712 250.7 136.116 249.21 139.349 248.391C145.355 261.829 156.357 271.152 159.78 272.223C165.743 274.091 175.171 264.286 180.168 256.685C181.417 254.787 182.227 252.635 182.541 250.385C182.268 249.399 182.079 248.79 182.079 248.79C182.079 248.79 179.265 259.603 173.68 258.196C168.095 256.79 159.549 245.598 154.782 241.735C150.016 237.871 151.969 232.79 151.024 227.036C150.079 221.283 135.969 216.223 135.024 212.926C134.079 209.63 137.376 195.981 137.376 195.981C137.376 195.981 142.73 188.842 141.575 191.782C140.759 194.331 140.463 197.018 140.704 199.683C140.946 202.349 141.721 204.938 142.982 207.299C143.867 209.162 145.271 210.729 147.025 211.813C148.78 212.897 150.81 213.451 152.872 213.409L157.995 188.023L147.181 179.079L134.583 184.328C125.176 195.604 121.964 198.669 123.79 207.236Z" fill="#0096EB"/>
</g>
<path d="M203.055 200.244C201.354 189.745 189.323 168.391 170.236 169.21C157.848 169.756 152.053 172.255 146.677 175.299C142.296 177.881 138.212 180.937 134.499 184.412C125.176 195.604 121.901 198.669 123.706 207.236C123.558 210.653 124.094 214.065 125.281 217.273C128.137 224.895 130.09 229.871 132.567 233.504C131.811 237.052 129.838 246.417 129.733 248.559C129.628 250.7 136.032 249.21 139.265 248.391C145.271 261.829 156.273 271.152 159.696 272.223C165.659 274.091 175.087 264.286 180.084 256.685C185.081 249.084 181.302 240.538 181.323 237.136C181.344 233.735 192.557 226.26 196.714 223.887C200.871 221.514 204.735 210.722 203.055 200.244Z" stroke="#263238" stroke-width="0.504294" stroke-miterlimit="10"/>
<path d="M135.171 227.163L137.271 233.168C137.271 233.168 141.785 234.659 147.286 228.653" stroke="#263238" stroke-width="0.504294" stroke-miterlimit="10" stroke-linecap="round"/>
<path d="M150.688 255.215C150.688 255.215 155.685 254.711 157.701 247.698" stroke="#263238" stroke-width="0.504294" stroke-miterlimit="10" stroke-linecap="round"/>
<path d="M131.664 222.144C131.664 222.144 133.155 217.63 142.163 217.63" stroke="#263238" stroke-width="0.504294" stroke-miterlimit="10" stroke-linecap="round"/>
<path d="M177.837 160.853C171.292 159.912 164.691 159.407 158.079 159.341C158.079 159.341 138.3 147.94 119.297 160.097C100.294 172.255 109.428 193.546 109.428 198.858C109.428 204.171 103.339 204.192 107.14 211.037C110.94 217.882 123.79 214.102 123.79 214.102C123.926 211.521 124.608 208.997 125.792 206.699C126.976 204.4 128.634 202.379 130.656 200.769C137.502 195.457 142.961 194.302 145.229 195.835C145.229 195.835 143.717 207.236 145.985 211.793C145.985 211.793 153.586 215.593 155.874 215.593C158.163 215.593 154.383 218.806 161.963 221.661C163.344 222.157 164.822 222.326 166.279 222.155C167.736 221.984 169.134 221.477 170.362 220.674C171.475 216.055 173.911 209.105 178.446 210.722C185.103 213.094 191.171 229.472 182.163 235.058C192.997 237.031 206.121 217.861 206.898 200.391C207.675 182.921 189.092 162.827 177.837 160.853Z" fill="#263238"/>
<path d="M145.565 188.338C145.565 188.338 151.15 185.336 157.995 191.761C164.84 198.186 178.152 206.774 195.79 202.05" stroke="white" stroke-width="0.252147" stroke-linecap="round" stroke-linejoin="round"/>
<path d="M144.788 183.194C144.788 183.194 148.63 177.189 155.055 177.189C161.481 177.189 176.494 186.197 188.483 186.197" stroke="white" stroke-width="0.252147" stroke-linecap="round" stroke-linejoin="round"/>
<path d="M140.42 194.764C140.42 194.764 133.134 185.777 126.289 193.063C119.444 200.349 123.79 207.236 123.79 207.236" stroke="white" stroke-width="0.252147" stroke-linecap="round" stroke-linejoin="round"/>
<path d="M111.297 200.769C115.472 197.004 118.068 191.798 118.562 186.197C119.423 176.769 132.294 168.622 140.42 176.349" stroke="white" stroke-width="0.252147" stroke-linecap="round" stroke-linejoin="round"/>
<path d="M124.567 166.481C124.567 166.481 137.439 154.05 148.147 169.903" stroke="white" stroke-width="0.252147" stroke-linecap="round" stroke-linejoin="round"/>
<path d="M229.323 777.649C229.323 777.649 237.239 789.953 236.357 797.869L235.496 805.785C235.496 805.785 206.457 813.743 200.305 813.743C194.152 813.743 161.585 810.657 161.585 810.657L160.179 805.071C160.08 804.659 160.127 804.225 160.31 803.843C160.494 803.46 160.803 803.153 161.187 802.972L190.226 789.428L199.381 779.413L229.323 777.649Z" fill="white" stroke="#263238" stroke-width="0.506291" stroke-miterlimit="10"/>
<path d="M204.714 807.549C212.588 808.158 227.538 803.35 236.21 800.284L235.601 805.785C235.601 805.785 206.457 813.743 200.305 813.743C194.152 813.743 161.586 810.657 161.586 810.657L160.578 806.667C165.785 806.688 194.299 806.751 204.714 807.549Z" fill="#0096EB" stroke="#263238" stroke-width="0.506291" stroke-miterlimit="10"/>
<path d="M190.268 789.428L148 807.822C148 807.822 144.389 816.872 148 818.678C151.612 820.483 230.352 818.678 230.352 818.678C230.352 818.678 235.79 804.379 227.202 794.783C218.614 785.187 190.268 789.428 190.268 789.428Z" fill="white" stroke="#263238" stroke-width="0.506291" stroke-miterlimit="10"/>
<path d="M230.352 818.678C230.352 818.678 151.612 820.483 148 818.678C146.257 817.796 146.194 815.255 146.593 812.84H231.738C231.459 814.825 230.995 816.779 230.352 818.678Z" fill="#0096EB" stroke="#263238" stroke-width="0.506291" stroke-miterlimit="10"/>
<path d="M170.278 469.829C170.278 469.829 159.234 518.773 155.055 549.387C150.877 580.001 148.42 641.334 149.302 648.369C150.184 655.403 194.152 773.261 194.152 773.261L198.541 783.759L229.323 777.607C229.323 777.607 215.255 732.757 209.984 708.127C204.714 683.497 193.186 643.035 193.186 636.001C193.186 628.967 220.483 494.626 222.436 485.808C224.388 476.989 233.249 463.445 233.249 463.445L174.31 462.249L170.278 469.829Z" fill="#0096EB" stroke="#263238" stroke-width="0.506291" stroke-miterlimit="10"/>
<path d="M170.278 469.828C170.278 469.828 163.811 514.531 166.478 545.607C169.145 576.683 174.877 642.846 174.877 652.694C174.877 662.541 190.772 721.355 191.675 739.832C193.081 766.52 191.108 779.727 191.108 779.727L190.163 789.407C190.163 789.407 208.703 792.053 212.756 793.208C217.437 794.413 222.267 794.937 227.097 794.761C227.097 794.761 233.837 765.092 233.837 739.811C233.837 714.531 228.231 662.499 225.438 641.418C222.646 620.337 231.444 539.014 236.441 523.833C241.438 508.652 252.357 476.505 245.008 460.085C237.659 443.666 170.278 469.828 170.278 469.828Z" fill="#0096EB" stroke="#263238" stroke-width="0.506291" stroke-miterlimit="10"/>
<path d="M253.176 451.855L252.504 471.844C252.504 471.844 240.535 474.217 224.409 477.01C211.097 479.319 177.669 476.401 166.415 475.309C165.389 475.218 164.441 474.726 163.777 473.939C163.112 473.153 162.785 472.136 162.866 471.11L163.958 453.052L253.176 451.855Z" fill="#263238"/>
<path d="M206.394 252.59C206.394 252.59 187.496 273.021 180.378 285.724C173.26 298.427 170.446 317.892 167.78 333.22C165.113 348.548 172.336 384.537 170.299 401.062L163.853 453.115C163.853 453.115 162.467 456.642 167.108 460.506C171.748 464.369 194.404 465.776 214.877 466.805C222.352 467.183 244.672 462.374 248.325 462.143C252.735 461.87 252.882 456.264 253.071 451.855C253.953 431.13 257.69 375.886 260.147 351.824C265.207 302.753 237.512 255.383 206.394 252.59Z" fill="white" stroke="#263238" stroke-width="0.506291" stroke-miterlimit="10"/>
<g style="mix-blend-mode:multiply">
<path d="M257.837 379.729C258.677 368.831 259.517 358.942 260.252 351.823C260.462 349.724 260.588 347.624 260.693 345.524L210.488 353.923L167.36 339.225C167.364 348.149 167.869 357.066 168.872 365.934L211.181 377.776L257.837 379.729Z" fill="#0096EB"/>
</g>
<g style="mix-blend-mode:multiply">
<path d="M204.525 254.648C201.669 257.819 196 264.265 190.604 271.11L222.478 303.509L232.976 299.309L204.525 254.648Z" fill="#0096EB"/>
</g>
<path d="M206.394 252.59C206.394 252.59 187.496 273.021 180.378 285.724C178.267 289.585 176.558 293.651 175.276 297.861L213.281 253.955C211.036 253.275 208.729 252.818 206.394 252.59Z" fill="#263238"/>
<g style="mix-blend-mode:multiply">
<path d="M169.25 324.947L210.488 338.511L260.567 332.758C259.782 320.283 257.01 308.013 252.357 296.412L211.979 312.601L175.885 296.244C172.933 305.625 170.715 315.222 169.25 324.947Z" fill="#0096EB"/>
</g>
<g style="mix-blend-mode:multiply">
<path d="M240.241 431.13C219.325 434.642 197.864 432.889 177.795 426.028L167.738 422.584L164.609 447.781L176.074 450.994C197.868 457.087 220.647 458.842 243.118 456.159L252.378 455.046C252.86 454.026 253.131 452.919 253.176 451.792C253.428 446.185 253.869 438.038 254.436 428.695L240.241 431.13Z" fill="#0096EB"/>
</g>
<g style="mix-blend-mode:multiply">
<path d="M245.848 396.821C224.931 400.346 203.464 398.585 183.402 391.698L170.593 387.309C170.911 391.884 170.848 396.477 170.404 401.041L168.914 413.157L181.68 416.726C203.466 422.826 226.238 424.588 248.703 421.913L255.003 421.157C255.527 412.758 256.136 403.813 256.787 394.973L245.848 396.821Z" fill="#0096EB"/>
</g>
<path d="M48.8537 308.027L89.4528 340.67L91.2026 338.494L50.6036 305.851L48.8537 308.027Z" fill="#263238"/>
<path d="M225.942 275.246C225.942 275.246 240.829 285.388 241.165 309.346C241.312 319.844 240.22 329.65 237.806 346.847C235.391 364.044 220.399 420.044 208.724 426.847C197.05 433.65 178.929 420.799 178.929 420.799L91.2865 362.616L70.1002 345.503L59.6016 325.682L62.8981 319.382L88.7458 339.204L74.8246 326.333L77.5543 322.868L82.5936 326.375L97.2917 331.876L100.504 352.873L105.04 355.981L188.882 386.616C188.882 386.616 187.832 341.493 188.609 332.863C189.386 324.233 190.457 302.543 199.696 286.816" fill="white"/>
<g style="mix-blend-mode:multiply" opacity="0.5">
<path d="M188.294 352.517C188.294 368.097 188.819 386.616 188.819 386.616L105.061 356.107L100.525 353L97.3127 332.002L82.6146 326.501L77.5962 322.931L74.8666 326.396L88.7458 339.204L62.8981 319.383L59.7695 325.577L70.2682 345.398L91.4545 362.616L96.7878 366.165L212.588 403.477L188.294 352.517Z" fill="#0096EB"/>
</g>
<path d="M225.942 275.246C225.942 275.246 240.829 285.388 241.165 309.346C241.312 319.844 240.22 329.65 237.806 346.847C235.391 364.044 220.399 420.044 208.724 426.847C197.05 433.65 178.929 420.799 178.929 420.799L91.2865 362.616L70.1002 345.503L59.6016 325.682L62.8981 319.382L88.7458 339.204L74.8246 326.333L77.5543 322.868L82.5936 326.375L97.2917 331.876L100.504 352.873L105.04 355.981L188.882 386.616C188.882 386.616 187.832 341.493 188.609 332.863C189.386 324.233 190.457 302.543 199.696 286.816" stroke="#263238" stroke-width="0.506291" stroke-miterlimit="10"/>
<path d="M188.882 386.616L220.882 409.713L229.176 395.015C229.176 395.015 234.908 390.501 235.748 387.099C236.588 383.698 235.517 378.175 236.378 374.774C237.239 371.372 241.522 368.181 241.921 359.95C242.32 351.719 241.921 344.853 241.921 344.853C241.921 344.853 248.85 316.359 248.094 303.971C247.339 291.582 235.391 269.682 225.816 269.199C216.241 268.716 203.79 270.165 194.131 284.779C184.473 299.393 186.446 342.06 184.935 344.727C183.423 347.393 185.522 360.559 185.522 360.559C184.683 361.184 183.987 361.982 183.48 362.898C182.973 363.814 182.667 364.827 182.583 365.871C182.415 369.293 186.11 377.713 186.11 377.713L188.882 386.616Z" fill="white" stroke="#263238" stroke-width="0.506291" stroke-miterlimit="10"/>
<g style="mix-blend-mode:multiply">
<path d="M185.774 333.766C185.84 337.43 185.566 341.092 184.955 344.705C183.612 347.099 185.144 357.913 185.48 360.117C203.479 365.707 222.511 367.143 241.144 364.317C241.545 362.856 241.784 361.357 241.858 359.844C242.278 351.634 241.858 344.747 241.858 344.747C241.858 344.747 242.467 342.207 243.307 338.343C224.009 339.57 204.635 338.028 185.774 333.766Z" fill="#0096EB"/>
</g>
<g style="mix-blend-mode:multiply">
<path d="M192.83 287.11C189.827 293.136 188.147 302.186 187.181 311.362C206.243 318.636 226.795 321.138 247.045 318.648C247.853 313.792 248.211 308.872 248.115 303.95C247.752 300.059 246.833 296.241 245.386 292.611C227.704 293.024 210.042 291.175 192.83 287.11Z" fill="#0096EB"/>
</g>
<path d="M186.11 377.944L188.819 386.616L220.819 409.713L229.113 395.015C229.113 395.015 234.845 390.501 235.685 387.099C235.835 386.508 235.926 385.903 235.958 385.293C219.095 385.002 202.34 382.532 186.11 377.944Z" fill="#263238"/>
<path d="M209.27 792.935C209.27 792.935 209.984 774.751 213.47 748.169C216.955 721.586 208.577 683.833 207.171 677.534C205.764 671.235 207.885 657.25 206.478 652.337C205.071 647.424 198.268 626.468 202.278 602.153C206.289 577.839 209.543 513.566 209.543 513.566C209.543 513.566 199.444 505.356 196.483 494.668C193.522 483.981 195.79 480.621 195.79 480.621" stroke="#263238" stroke-width="0.506291" stroke-miterlimit="10"/>
<path d="M213.953 481.608L210.068 503.109" stroke="#263238" stroke-width="0.506291" stroke-miterlimit="10"/>
<path d="M635.411 551.698H471.515V665.669H635.411V551.698Z" fill="#EBEBEB"/>
<path d="M576.408 621.688C571.508 624.134 566.05 625.537 560.454 625.788C554.858 626.04 549.272 625.133 544.126 623.139C538.979 621.144 534.408 618.115 530.764 614.282C527.12 610.45 524.499 605.917 523.102 601.031C521.706 596.144 521.571 591.035 522.708 586.095C523.845 581.154 526.224 576.514 529.662 572.53C533.1 568.546 537.505 565.324 542.541 563.112C547.576 560.899 553.108 559.755 558.711 559.767V592.798L576.408 621.688Z" fill="#263238"/>
<path d="M580.443 566.126L558.758 592.546V559.767C566.561 559.734 574.167 561.965 580.443 566.126Z" fill="#0D97FC"/>
<path d="M595.571 592.877C595.586 601.168 592.1 609.157 585.812 615.239L558.758 592.877L580.584 566.323C585.237 569.381 589.019 573.379 591.623 577.993C594.227 582.607 595.58 587.707 595.571 592.877Z" fill="#A6A6A6"/>
<path d="M598.597 630.417C595.942 633.024 592.831 635.223 589.388 636.924L571.87 608.179L598.597 630.417Z" fill="#455A64"/>
<path d="M585.99 646.505H552.707V649.531H585.99V646.505Z" fill="#455A64"/>
<path d="M579.938 652.557H558.254V655.582H579.938V652.557Z" fill="#455A64"/>
<path d="M546.655 646.505H537.073V656.087H546.655V646.505Z" fill="#263238"/>
<path d="M458.403 551.698H291.986V665.441H458.403V551.698Z" fill="#EBEBEB"/>
<path d="M319.308 644.287H312.319V652.393H319.308V644.287Z" fill="#0D97FC"/>
<path d="M400.69 644.287H324.16V646.676H400.69V644.287Z" fill="#455A64"/>
<path d="M373.609 649.989H324.16V652.379H373.609V649.989Z" fill="#455A64"/>
<path d="M308.983 572.735C331.047 572.617 353.112 572.647 375.189 572.588C397.265 572.529 419.33 572.588 441.394 572.735C419.33 572.866 397.253 572.837 375.189 572.896C353.124 572.954 331.047 572.866 308.983 572.735Z" fill="#455A64"/>
<path d="M308.983 585.092C331.047 584.975 353.112 585.004 375.189 584.945C397.265 584.887 419.33 584.945 441.394 585.092C419.33 585.224 397.253 585.195 375.189 585.253C353.124 585.312 331.047 585.092 308.983 585.092Z" fill="#455A64"/>
<path d="M308.983 597.303C331.047 597.171 353.112 597.215 375.189 597.157C397.265 597.098 419.33 597.157 441.394 597.303C419.33 597.435 397.253 597.406 375.189 597.45C353.124 597.494 331.047 597.435 308.983 597.303Z" fill="#455A64"/>
<path d="M308.983 609.588C331.047 609.456 353.112 609.486 375.189 609.442C397.265 609.398 419.33 609.442 441.394 609.588C419.33 609.72 397.253 609.676 375.189 609.735C353.124 609.793 331.047 609.72 308.983 609.588Z" fill="#455A64"/>
<path d="M308.983 621.872C331.047 621.741 353.112 621.77 375.189 621.711C397.265 621.653 419.33 621.711 441.394 621.872C419.33 622.004 397.253 621.96 375.189 622.019C353.124 622.078 331.047 621.99 308.983 621.872Z" fill="#455A64"/>
<path d="M335.635 564.759C335.837 576.238 335.786 587.701 335.862 599.18C335.938 610.658 335.862 622.136 335.635 633.615C335.445 622.136 335.496 610.658 335.407 599.18C335.319 587.701 335.445 576.296 335.635 564.759Z" fill="#455A64"/>
<path d="M358.533 564.759C358.735 576.238 358.685 587.701 358.76 599.18C358.836 610.658 358.76 622.136 358.533 633.615C358.343 622.136 358.394 610.658 358.306 599.18C358.217 587.701 358.343 576.296 358.533 564.759Z" fill="#455A64"/>
<path d="M381.431 564.759C381.633 576.238 381.583 587.701 381.659 599.18C381.734 610.658 381.659 622.136 381.431 633.615C381.242 622.136 381.292 610.658 381.216 599.18C381.141 587.701 381.242 576.296 381.431 564.759Z" fill="#455A64"/>
<path d="M404.342 564.759C404.532 576.238 404.481 587.701 404.557 599.18C404.633 610.658 404.557 622.136 404.342 633.615C404.14 622.136 404.191 610.658 404.115 599.18C404.039 587.701 404.14 576.296 404.342 564.759Z" fill="#455A64"/>
<path d="M427.241 564.759C427.43 576.238 427.38 587.701 427.455 599.18C427.531 610.658 427.455 622.136 427.241 633.615C427.038 622.136 427.089 610.658 427.013 599.18C426.937 587.701 427.038 576.296 427.241 564.759Z" fill="#455A64"/>
<path opacity="0.5" d="M312.319 612.945C316.351 612.945 318.764 600.47 324.489 600.47C330.213 600.47 330.807 609.573 335.635 609.573C340.462 609.573 340.31 593.58 346.793 593.58C353.276 593.58 351.76 600.074 358.533 600.074C365.306 600.074 362.792 585.092 369.843 585.092C376.895 585.092 374.051 605.85 381.431 605.85C386.107 605.85 387.914 599.253 393.487 599.253C397.177 599.253 399.351 602.552 404.178 602.552C409.005 602.552 410.067 589.886 416.082 589.886C422.097 589.886 422.805 597.377 427.241 597.377C431.676 597.377 433.256 585.092 441.394 585.092V633.615H312.319V612.945Z" fill="#0D97FC"/>
<path d="M312.319 613.56V612.358C313.583 612.358 315.226 609.427 316.452 607.316C318.575 603.665 320.761 599.883 324.489 599.883C328.217 599.883 329.86 602.654 331.427 605.087C332.69 607.008 333.954 608.987 335.635 608.987C337.315 608.987 338.453 605.146 339.426 602.346C340.993 597.743 342.61 592.993 346.818 592.993C348.07 592.921 349.318 593.203 350.454 593.816C351.59 594.429 352.581 595.354 353.339 596.512C353.93 597.465 354.717 598.232 355.629 598.744C356.54 599.256 357.547 599.496 358.558 599.443C361.161 599.443 362.185 595.925 363.171 592.524C364.333 588.522 365.534 584.374 369.868 584.374C374.203 584.374 375.252 589.592 376.414 595.104C377.35 599.502 378.525 605.131 381.469 605.131C383.238 605.131 384.666 603.753 386.195 602.317C388.04 600.543 390.138 598.535 393.525 598.535C395.325 598.622 397.086 599.173 398.681 600.147C400.392 601.188 402.285 601.764 404.216 601.833C405.897 601.833 407.413 598.901 408.639 596.394C410.446 592.847 412.304 589.167 416.12 589.167C419.936 589.167 421.794 591.557 423.437 593.668C424.637 595.207 425.775 596.6 427.228 596.6C428.492 596.6 429.945 594.269 431.209 592.202C433.395 588.683 436.099 584.3 441.381 584.3V585.502C437.312 585.502 434.962 589.299 432.889 592.656C431.12 595.515 429.717 597.787 427.228 597.787C424.738 597.787 423.247 596.013 421.781 594.137C420.315 592.26 418.761 590.281 416.069 590.281C413.378 590.281 411.836 593.697 410.307 596.702C408.614 600.059 407.148 602.962 404.165 602.962C401.852 602.91 399.579 602.249 397.518 601.027C396.271 600.239 394.891 599.774 393.474 599.663C391.035 599.663 389.304 601.32 387.623 602.918C385.943 604.516 384.136 606.26 381.419 606.26C376.907 606.26 375.783 600.88 374.582 595.207C373.672 590.882 372.535 585.502 369.831 585.502C367.126 585.502 365.888 589.314 364.915 592.671C363.739 596.731 362.627 600.572 358.52 600.572C357.215 600.661 355.91 600.377 354.72 599.746C353.531 599.115 352.493 598.155 351.696 596.951C351.15 596.029 350.415 595.278 349.557 594.766C348.699 594.254 347.745 593.998 346.781 594.019C344.026 594.019 342.433 598.681 341.157 602.434C339.716 606.671 338.63 610.013 335.622 610.013C332.614 610.013 331.275 607.77 329.746 605.381C328.217 602.991 326.865 600.909 324.476 600.909C322.088 600.909 319.851 604.604 318.158 607.565C316.262 610.995 314.771 613.56 312.319 613.56Z" fill="#0D97FC"/>
<path d="M312.319 565.507C312.458 576.853 312.585 588.2 312.597 599.561L312.736 633.614L312.319 633.336H376.857H409.132L441.394 633.497L409.132 633.644H376.857H312.319H311.89V633.365L312.029 599.311C312.041 588.2 312.168 576.853 312.319 565.507Z" fill="#455A64"/>
<path d="M458.212 415.034H291.986V528.78H458.212V415.034Z" fill="#EBEBEB"/>
<path d="M306.811 509.829L375.099 509.651L443.387 509.829L375.099 509.993L306.811 509.829Z" fill="#263238"/>
<path d="M306.811 518.697L375.099 518.533L443.387 518.697L375.099 518.874L306.811 518.697Z" fill="#263238"/>
<path d="M306.811 499.91L375.099 499.746L443.387 499.91L375.099 500.088L306.811 499.91Z" fill="#263238"/>
<path d="M306.811 489.676L375.099 489.499L443.387 489.676L375.099 489.84L306.811 489.676Z" fill="#263238"/>
<path d="M306.811 479.429L375.099 479.251L443.387 479.429L375.099 479.593L306.811 479.429Z" fill="#263238"/>
<path d="M306.811 469.509L375.099 469.345L443.387 469.509L375.099 469.687L306.811 469.509Z" fill="#263238"/>
<path d="M306.811 459.276L375.099 459.098L443.387 459.276L375.099 459.44L306.811 459.276Z" fill="#263238"/>
<path d="M306.811 438.781L375.099 438.603L443.387 438.781L375.099 438.945L306.811 438.781Z" fill="#263238"/>
<path d="M306.811 428.527L375.099 428.356L443.387 428.527L375.099 428.698L306.811 428.527Z" fill="#263238"/>
<path d="M312.804 505.245L331.073 483.392L338.558 487.698L358.289 465.76L363.738 470.635L376.421 461.831L393.99 475.886L397.902 471.011L407.948 481.137L423.706 466.766L433.065 475.51L443.387 472.139V519.216H312.804V505.245Z" fill="#A6A6A6"/>
<path d="M312.804 505.338L330.286 500.972L346.731 483.288L353.416 488.165L366.687 473.631L377.271 478.386L381.919 474.129L394.903 489.478L413.222 466.613L427.505 483.288L443.387 474.762V519.216H312.804V505.338Z" fill="#455A64"/>
<path d="M313.119 504.755L335.427 490.696L347.456 496.641L354.033 494.216L361.073 498.98L378.728 487.431L381.867 492.462L388.006 490.452L400.21 496.641L416.828 488.442L426.819 496.641L443.387 482.667V519.216H313.119V504.755Z" fill="#0D97FC"/>
<path d="M313.119 423.916H311.227V519.899H313.119V423.916Z" fill="#455A64"/>
<path d="M443.387 519.899V517.85H311.227V519.899H443.387Z" fill="#455A64"/>
<path d="M637.428 415.034H471.515V528.275H637.428V415.034Z" fill="#EBEBEB"/>
<path d="M490.591 430.472L567.17 430.302C592.706 430.362 592.803 430.302 618.339 430.472C592.803 430.629 592.706 430.581 567.17 430.653L490.591 430.472Z" fill="#455A64"/>
<path d="M490.591 435.796L567.17 435.626C592.706 435.626 592.803 435.626 618.339 435.796C592.803 435.953 592.706 435.917 567.17 435.978L490.591 435.796Z" fill="#455A64"/>
<path d="M490.591 441.119L567.198 440.949C592.734 441.01 592.831 440.949 618.366 441.119C592.831 441.277 592.734 441.24 567.198 441.301L490.591 441.119Z" fill="#455A64"/>
<path d="M490.591 446.407L567.17 446.237C592.706 446.297 592.803 446.237 618.339 446.407C592.803 446.564 592.706 446.528 567.17 446.588L490.591 446.407Z" fill="#455A64"/>
<path d="M490.591 451.766L567.17 451.597C592.706 451.657 592.803 451.597 618.339 451.766C592.803 451.924 592.706 451.888 567.17 451.948L490.591 451.766Z" fill="#455A64"/>
<path d="M490.591 457.09L567.17 456.92C592.706 456.981 592.803 456.92 618.339 457.09C592.803 457.248 592.706 457.211 567.17 457.272L490.591 457.09Z" fill="#455A64"/>
<path d="M490.591 462.414L567.17 462.244C592.706 462.305 592.803 462.244 618.339 462.414C592.803 462.572 592.706 462.535 567.17 462.596L490.591 462.414Z" fill="#455A64"/>
<path d="M490.591 467.738L567.17 467.568C592.706 467.629 592.803 467.568 618.339 467.738C592.803 467.895 592.706 467.859 567.17 467.92L490.591 467.738Z" fill="#455A64"/>
<path d="M490.591 473.086L567.17 472.916C592.706 472.916 592.803 472.916 618.339 473.086C592.803 473.243 592.706 473.207 567.17 473.268L490.591 473.086Z" fill="#455A64"/>
<path d="M490.591 478.385L567.17 478.215C592.706 478.215 592.803 478.215 618.339 478.385C592.803 478.543 592.706 478.506 567.17 478.567L490.591 478.385Z" fill="#455A64"/>
<path d="M490.591 483.709L567.17 483.539C592.706 483.6 592.803 483.539 618.339 483.709C592.803 483.867 592.706 483.83 567.17 483.891L490.591 483.709Z" fill="#455A64"/>
<path d="M490.591 489.032L567.198 488.85C592.734 488.911 592.831 488.85 618.366 489.02C592.831 489.178 592.734 489.141 567.198 489.202L490.591 489.032Z" fill="#455A64"/>
<path d="M490.591 494.356L567.198 494.187C592.734 494.247 592.831 494.187 618.366 494.356C592.831 494.514 592.734 494.478 567.198 494.538L490.591 494.356Z" fill="#455A64"/>
<path d="M490.591 499.68L567.17 499.51C592.706 499.51 592.803 499.51 618.339 499.68C592.803 499.837 592.706 499.801 567.17 499.861L490.591 499.68Z" fill="#455A64"/>
<path d="M490.591 505.003L567.17 504.833C592.706 504.894 592.803 504.834 618.339 505.003C592.803 505.161 592.706 505.125 567.17 505.185L490.591 505.003Z" fill="#455A64"/>
<path d="M518.414 467.738H506.797V511.213H518.414V467.738Z" fill="#0D97FC"/>
<path d="M539.957 449.354H528.34V511.213H539.957V449.354Z" fill="white"/>
<path d="M561.5 462.608H549.883V511.225H561.5V462.608Z" fill="#A6A6A6"/>
<path d="M583.043 446.442H571.426V511.212H583.043V446.442Z" fill="#0D97FC"/>
<path d="M604.586 455.138H592.969V511.224H604.586V455.138Z" fill="white"/>
<path d="M494.75 426.737L495.11 447.862L495.332 468.975C495.47 483.058 495.544 497.137 495.554 511.213L494.791 510.57H532.041L569.291 510.643L606.541 510.861L618.38 511.237L606.541 511.625L569.291 511.831L532.041 511.916H494.791H494.043V511.273C494.043 497.194 494.112 483.115 494.264 469.035L494.472 447.922L494.75 426.737Z" fill="#455A64"/>
<path d="M518.414 515.675H506.797V516.573H518.414V515.675Z" fill="#455A64"/>
<path d="M539.957 515.675H528.34V516.573H539.957V515.675Z" fill="#455A64"/>
<path d="M561.5 515.675H549.883V516.573H561.5V515.675Z" fill="#455A64"/>
<path d="M583.043 515.675H571.426V516.573H583.043V515.675Z" fill="#455A64"/>
<path d="M604.586 515.675H592.969V516.573H604.586V515.675Z" fill="#455A64"/>
<rect x="364.605" y="324.766" width="207.265" height="61.5239" rx="20.6761" fill="#00C0EA"/>
<path d="M508.886 341.45C501.298 341.45 496.547 346.538 496.547 354.693C496.547 362.831 501.298 367.919 508.886 367.919C516.456 367.919 521.226 362.831 521.226 354.693C521.226 346.538 516.456 341.45 508.886 341.45ZM508.886 345.917C513.07 345.917 515.747 349.321 515.747 354.693C515.747 360.048 513.07 363.434 508.886 363.434C504.684 363.434 502.007 360.048 502.007 354.693C502.007 349.321 504.702 345.917 508.886 345.917ZM529.806 367.476V350.722H529.966L541.933 367.476H546.365V341.893H541.242V358.558H541.1L529.15 341.893H524.683V367.476H529.806Z" fill="black"/>
<path d="M386.728 352.089C389.18 352.089 390.85 350.796 391.256 348.595H389.609C389.276 349.88 388.22 350.641 386.735 350.641C384.778 350.641 383.536 349.068 383.536 346.578C383.536 344.111 384.792 342.523 386.728 342.523C388.176 342.523 389.313 343.416 389.609 344.783H391.249C390.968 342.56 389.143 341.075 386.728 341.075C383.751 341.075 381.845 343.202 381.845 346.578C381.845 349.976 383.736 352.089 386.728 352.089ZM401.531 351.912V341.252H399.877V345.758H394.403V341.252H392.748V351.912H394.403V347.191H399.877V351.912H401.531ZM410.433 351.912H412.184L408.335 341.252H406.547L402.699 351.912H404.42L405.395 349.031H409.458L410.433 351.912ZM407.404 343.025H407.449L409.037 347.701H405.816L407.404 343.025ZM415.013 342.641H417.288C418.566 342.641 419.342 343.365 419.342 344.554C419.342 345.773 418.611 346.475 417.333 346.475H415.013V342.641ZM415.013 347.812H417.288L419.46 351.912H421.366L418.98 347.553C420.28 347.117 421.048 345.95 421.048 344.51C421.048 342.523 419.682 341.252 417.488 341.252H413.358V351.912H415.013V347.812ZM431.833 347.479V346.393H427.446V347.731H430.201V347.915C430.179 349.533 428.982 350.641 427.253 350.641C425.222 350.641 423.959 349.068 423.959 346.519C423.959 344.015 425.185 342.523 427.224 342.523C428.613 342.523 429.654 343.283 430.053 344.606H431.752C431.383 342.478 429.588 341.075 427.217 341.075C424.18 341.075 422.267 343.173 422.267 346.534C422.267 349.954 424.188 352.089 427.239 352.089C430.127 352.089 431.833 350.368 431.833 347.479ZM435.106 351.912V341.252H433.451V351.912H435.106ZM438.681 351.912V344.059H438.748L444.273 351.912H445.766V341.252H444.155V349.112H444.096L438.571 341.252H437.071V351.912H438.681ZM456.92 347.479V346.393H452.532V347.731H455.288V347.915C455.265 349.533 454.069 350.641 452.34 350.641C450.309 350.641 449.045 349.068 449.045 346.519C449.045 344.015 450.272 342.523 452.311 342.523C453.699 342.523 454.741 343.283 455.14 344.606H456.839C456.47 342.478 454.674 341.075 452.303 341.075C449.267 341.075 447.354 343.173 447.354 346.534C447.354 349.954 449.274 352.089 452.325 352.089C455.214 352.089 456.92 350.368 456.92 347.479ZM381.756 365.942C381.86 367.87 383.455 369.089 385.819 369.089C388.345 369.089 389.934 367.84 389.934 365.846C389.934 364.287 389.025 363.408 386.839 362.891L385.664 362.603C384.29 362.263 383.729 361.82 383.729 361.066C383.729 360.121 384.608 359.471 385.893 359.471C387.178 359.471 388.057 360.114 388.153 361.177H389.764C389.712 359.338 388.168 358.075 385.915 358.075C383.64 358.075 382.037 359.338 382.037 361.177C382.037 362.662 382.945 363.578 384.903 364.051L386.284 364.383C387.666 364.723 388.249 365.218 388.249 366.045C388.249 366.998 387.282 367.693 385.937 367.693C384.534 367.693 383.507 366.998 383.389 365.942H381.756ZM395.718 368.912V359.678H398.976V358.252H390.798V359.678H394.063V368.912H395.718ZM405.809 368.912H407.559L403.711 358.252H401.923L398.074 368.912H399.796L400.771 366.031H404.834L405.809 368.912ZM402.78 360.025H402.824L404.412 364.701H401.192L402.78 360.025ZM411.571 368.912V359.678H414.828V358.252H406.651V359.678H409.916V368.912H411.571ZM417.835 358.252H416.18V365.166C416.18 367.464 417.82 369.089 420.494 369.089C423.168 369.089 424.808 367.464 424.808 365.166V358.252H423.161V365.026C423.161 366.548 422.193 367.619 420.494 367.619C418.795 367.619 417.835 366.548 417.835 365.026V358.252ZM426.301 365.942C426.404 367.87 428 369.089 430.363 369.089C432.89 369.089 434.478 367.84 434.478 365.846C434.478 364.287 433.569 363.408 431.383 362.891L430.208 362.603C428.834 362.263 428.273 361.82 428.273 361.066C428.273 360.121 429.152 359.471 430.437 359.471C431.723 359.471 432.602 360.114 432.698 361.177H434.308C434.256 359.338 432.713 358.075 430.459 358.075C428.184 358.075 426.581 359.338 426.581 361.177C426.581 362.662 427.49 363.578 429.447 364.051L430.829 364.383C432.21 364.723 432.794 365.218 432.794 366.045C432.794 366.998 431.826 367.693 430.482 367.693C429.078 367.693 428.051 366.998 427.933 365.942H426.301Z" fill="black"/>
<line x1="472.019" y1="341.912" x2="472.019" y2="369.144" stroke="black" stroke-width="1.00859"/>
</svg>
