<svg width="896" height="68" viewBox="0 0 896 68" fill="none" xmlns="http://www.w3.org/2000/svg">
<path d="M22.1797 32V8.04395H19.1914V18.4033H6.04297V8.04395H3.05469V32H6.04297V21.0928H19.1914V32H22.1797ZM35.2783 32.3154C40.375 32.3154 43.5293 28.7959 43.5293 23.0518C43.5293 17.291 40.375 13.7881 35.2783 13.7881C30.1816 13.7881 27.0273 17.291 27.0273 23.0518C27.0273 28.7959 30.1816 32.3154 35.2783 32.3154ZM35.2783 29.7422C31.8916 29.7422 29.9824 27.2852 29.9824 23.0518C29.9824 18.8018 31.8916 16.3613 35.2783 16.3613C38.665 16.3613 40.5742 18.8018 40.5742 23.0518C40.5742 27.2852 38.665 29.7422 35.2783 29.7422ZM69.8594 14.1035H66.9873L63.4678 28.4141H63.2021L59.2012 14.1035H56.4619L52.4609 28.4141H52.1953L48.6758 14.1035H45.7871L50.8008 32H53.6895L57.6738 18.1543H57.9395L61.9404 32H64.8457L69.8594 14.1035ZM97.8828 14.1035H94.8281L89.9307 28.8457H89.665L84.7676 14.1035H81.7129L88.3369 32H91.2588L97.8828 14.1035ZM108.176 16.3115C111.015 16.3115 112.907 18.4033 112.974 21.5742H103.112C103.328 18.4033 105.32 16.3115 108.176 16.3115ZM112.891 27.3682C112.144 28.9453 110.583 29.792 108.275 29.792C105.237 29.792 103.262 27.5508 103.112 24.0146V23.8818H115.979V22.7861C115.979 17.2246 113.04 13.7881 108.209 13.7881C103.295 13.7881 100.141 17.4404 100.141 23.0684C100.141 28.7295 103.245 32.3154 108.209 32.3154C112.127 32.3154 114.883 30.4395 115.746 27.3682H112.891ZM130.472 32.5645C135.568 32.5645 139.354 29.7256 140.15 25.3262H137.112C136.349 28.0986 133.809 29.8086 130.472 29.8086C125.856 29.8086 122.968 26.04 122.968 20.0303C122.968 14.0205 125.856 10.2354 130.455 10.2354C133.759 10.2354 136.315 12.1777 137.112 15.2656H140.15C139.437 10.6504 135.502 7.47949 130.455 7.47949C123.947 7.47949 119.896 12.2939 119.896 20.0303C119.896 27.75 123.964 32.5645 130.472 32.5645ZM144.965 32H147.82V21.4082C147.82 18.3867 149.58 16.3613 152.784 16.3613C155.49 16.3613 156.918 17.9385 156.918 21.1094V32H159.773V20.4121C159.773 16.2119 157.383 13.7881 153.598 13.7881C150.858 13.7881 148.982 14.9502 148.086 16.9258H147.82V6.99805H144.965V32ZM170.498 29.8086C168.423 29.8086 166.879 28.7461 166.879 26.9199C166.879 25.127 168.074 24.1807 170.797 23.998L175.611 23.6826V25.3262C175.611 27.8828 173.437 29.8086 170.498 29.8086ZM169.967 32.3154C172.357 32.3154 174.316 31.2695 175.479 29.3604H175.744V32H178.467V19.748C178.467 16.0293 176.026 13.7881 171.66 13.7881C167.842 13.7881 165.02 15.6807 164.638 18.5527H167.526C167.925 17.1416 169.419 16.3281 171.561 16.3281C174.233 16.3281 175.611 17.54 175.611 19.748V21.375L170.448 21.6904C166.281 21.9395 163.924 23.7822 163.924 26.9863C163.924 30.2568 166.497 32.3154 169.967 32.3154ZM183.746 32H186.602V20.9102C186.602 18.3867 188.577 16.5605 191.3 16.5605C191.864 16.5605 192.894 16.6602 193.126 16.7266V13.8711C192.761 13.8213 192.163 13.7881 191.698 13.7881C189.324 13.7881 187.266 15.0166 186.734 16.7598H186.469V14.1035H183.746V32ZM203.436 29.2109C200.115 29.2109 198.256 26.6875 198.256 22.7861C198.256 18.8848 200.115 16.3613 203.436 16.3613C206.739 16.3613 208.748 18.8848 208.748 22.7861C208.748 26.6875 206.756 29.2109 203.436 29.2109ZM203.568 38.873C208.449 38.873 211.537 36.3164 211.537 32.3154V14.1035H208.814V16.9424H208.549C207.52 15.0166 205.312 13.7881 202.805 13.7881C198.206 13.7881 195.301 17.4238 195.301 22.7861C195.301 28.1484 198.173 31.7344 202.805 31.7344C205.262 31.7344 207.287 30.6221 208.416 28.6465H208.682V32.166C208.682 34.8057 206.772 36.3828 203.568 36.3828C200.995 36.3828 199.401 35.4365 199.086 33.9756H196.064C196.496 36.9307 199.252 38.873 203.568 38.873ZM224.055 16.3115C226.894 16.3115 228.786 18.4033 228.853 21.5742H218.991C219.207 18.4033 221.199 16.3115 224.055 16.3115ZM228.77 27.3682C228.022 28.9453 226.462 29.792 224.154 29.792C221.116 29.792 219.141 27.5508 218.991 24.0146V23.8818H231.857V22.7861C231.857 17.2246 228.919 13.7881 224.088 13.7881C219.174 13.7881 216.02 17.4404 216.02 23.0684C216.02 28.7295 219.124 32.3154 224.088 32.3154C228.006 32.3154 230.762 30.4395 231.625 27.3682H228.77ZM268.447 14.1035H265.575L262.056 28.4141H261.79L257.789 14.1035H255.05L251.049 28.4141H250.783L247.264 14.1035H244.375L249.389 32H252.277L256.262 18.1543H256.527L260.528 32H263.434L268.447 14.1035ZM278.956 32.3154C284.053 32.3154 287.207 28.7959 287.207 23.0518C287.207 17.291 284.053 13.7881 278.956 13.7881C273.859 13.7881 270.705 17.291 270.705 23.0518C270.705 28.7959 273.859 32.3154 278.956 32.3154ZM278.956 29.7422C275.569 29.7422 273.66 27.2852 273.66 23.0518C273.66 18.8018 275.569 16.3613 278.956 16.3613C282.343 16.3613 284.252 18.8018 284.252 23.0518C284.252 27.2852 282.343 29.7422 278.956 29.7422ZM291.689 32H294.545V20.9102C294.545 18.3867 296.521 16.5605 299.243 16.5605C299.808 16.5605 300.837 16.6602 301.069 16.7266V13.8711C300.704 13.8213 300.106 13.7881 299.642 13.7881C297.268 13.7881 295.209 15.0166 294.678 16.7598H294.412V14.1035H291.689V32ZM307.926 21.9229H307.66V6.99805H304.805V32H307.66V25.21L309.37 23.6162L316.077 32H319.713L311.495 21.7734L319.198 14.1035H315.695L307.926 21.9229ZM322.021 19.001C322.021 21.5908 323.548 23.0352 326.901 23.8486L329.973 24.5957C331.882 25.0605 332.812 25.8906 332.812 27.1191C332.812 28.7627 331.085 29.9082 328.678 29.9082C326.387 29.9082 324.959 28.9453 324.478 27.4346H321.539C321.854 30.4062 324.594 32.3154 328.578 32.3154C332.646 32.3154 335.75 30.1074 335.75 26.9033C335.75 24.3301 334.123 22.8691 330.753 22.0557L327.997 21.3916C325.889 20.877 324.893 20.1133 324.893 18.8848C324.893 17.291 326.553 16.2119 328.678 16.2119C330.836 16.2119 332.23 17.1582 332.612 18.5859H335.435C335.053 15.6475 332.446 13.7881 328.694 13.7881C324.893 13.7881 322.021 16.0293 322.021 19.001Z" fill="#292929"/>
<line x1="2" y1="67.5" x2="896" y2="67.4999" stroke="black"/>
</svg>
