<svg width="896" height="68" viewBox="0 0 896 68" fill="none" xmlns="http://www.w3.org/2000/svg">
<path d="M6.04297 10.7002H11.8037C14.8916 10.7002 16.751 12.4102 16.751 15.2822C16.751 18.2207 15.0078 19.8643 11.9365 19.8643H6.04297V10.7002ZM6.04297 22.5205H11.9365L17.0664 32H20.5693L15.0244 22.0557C18.0293 21.1094 19.8389 18.5195 19.8389 15.1826C19.8389 10.8662 16.8174 8.04395 12.2021 8.04395H3.05469V32H6.04297V22.5205ZM31.543 16.3115C34.3818 16.3115 36.2744 18.4033 36.3408 21.5742H26.4795C26.6953 18.4033 28.6875 16.3115 31.543 16.3115ZM36.2578 27.3682C35.5107 28.9453 33.9502 29.792 31.6426 29.792C28.6045 29.792 26.6289 27.5508 26.4795 24.0146V23.8818H39.3457V22.7861C39.3457 17.2246 36.4072 13.7881 31.5762 13.7881C26.6621 13.7881 23.5078 17.4404 23.5078 23.0684C23.5078 28.7295 26.6123 32.3154 31.5762 32.3154C35.4941 32.3154 38.25 30.4395 39.1133 27.3682H36.2578ZM45.0234 32H47.8789V16.4941H51.9795V14.1035H47.8789V12.1943C47.8789 10.2354 48.7422 9.23926 50.8008 9.23926C51.3154 9.23926 51.7969 9.25586 52.1455 9.32227V6.99805C51.5479 6.88184 50.917 6.83203 50.2197 6.83203C46.8164 6.83203 45.0234 8.54199 45.0234 12.1113V14.1035H42.0518V16.4941H45.0234V32ZM62.5215 16.3115C65.3604 16.3115 67.2529 18.4033 67.3193 21.5742H57.458C57.6738 18.4033 59.666 16.3115 62.5215 16.3115ZM67.2363 27.3682C66.4893 28.9453 64.9287 29.792 62.6211 29.792C59.583 29.792 57.6074 27.5508 57.458 24.0146V23.8818H70.3242V22.7861C70.3242 17.2246 67.3857 13.7881 62.5547 13.7881C57.6406 13.7881 54.4863 17.4404 54.4863 23.0684C54.4863 28.7295 57.5908 32.3154 62.5547 32.3154C66.4727 32.3154 69.2285 30.4395 70.0918 27.3682H67.2363ZM74.8066 32H77.6621V20.9102C77.6621 18.3867 79.6377 16.5605 82.3604 16.5605C82.9248 16.5605 83.9541 16.6602 84.1865 16.7266V13.8711C83.8213 13.8213 83.2236 13.7881 82.7588 13.7881C80.3848 13.7881 78.3262 15.0166 77.7949 16.7598H77.5293V14.1035H74.8066V32ZM102.863 29.8086C100.788 29.8086 99.2441 28.7461 99.2441 26.9199C99.2441 25.127 100.439 24.1807 103.162 23.998L107.977 23.6826V25.3262C107.977 27.8828 105.802 29.8086 102.863 29.8086ZM102.332 32.3154C104.723 32.3154 106.682 31.2695 107.844 29.3604H108.109V32H110.832V19.748C110.832 16.0293 108.392 13.7881 104.025 13.7881C100.207 13.7881 97.3848 15.6807 97.0029 18.5527H99.8916C100.29 17.1416 101.784 16.3281 103.926 16.3281C106.599 16.3281 107.977 17.54 107.977 19.748V21.375L102.813 21.6904C98.6465 21.9395 96.2891 23.7822 96.2891 26.9863C96.2891 30.2568 98.8623 32.3154 102.332 32.3154ZM126.902 32H129.758V16.4941H133.858V14.1035H129.758V12.1943C129.758 10.2354 130.621 9.23926 132.68 9.23926C133.194 9.23926 133.676 9.25586 134.024 9.32227V6.99805C133.427 6.88184 132.796 6.83203 132.099 6.83203C128.695 6.83203 126.902 8.54199 126.902 12.1113V14.1035H123.931V16.4941H126.902V32ZM138.025 32H140.881V20.9102C140.881 18.3867 142.856 16.5605 145.579 16.5605C146.144 16.5605 147.173 16.6602 147.405 16.7266V13.8711C147.04 13.8213 146.442 13.7881 145.978 13.7881C143.604 13.7881 141.545 15.0166 141.014 16.7598H140.748V14.1035H138.025V32ZM151.041 32H153.896V14.1035H151.041V32ZM152.469 10.4678C153.564 10.4678 154.461 9.57129 154.461 8.47559C154.461 7.37988 153.564 6.4834 152.469 6.4834C151.373 6.4834 150.477 7.37988 150.477 8.47559C150.477 9.57129 151.373 10.4678 152.469 10.4678ZM166.48 16.3115C169.319 16.3115 171.212 18.4033 171.278 21.5742H161.417C161.633 18.4033 163.625 16.3115 166.48 16.3115ZM171.195 27.3682C170.448 28.9453 168.888 29.792 166.58 29.792C163.542 29.792 161.566 27.5508 161.417 24.0146V23.8818H174.283V22.7861C174.283 17.2246 171.345 13.7881 166.514 13.7881C161.6 13.7881 158.445 17.4404 158.445 23.0684C158.445 28.7295 161.55 32.3154 166.514 32.3154C170.432 32.3154 173.188 30.4395 174.051 27.3682H171.195ZM178.766 32H181.621V21.4082C181.621 18.2705 183.464 16.3613 186.319 16.3613C189.175 16.3613 190.536 17.8887 190.536 21.1094V32H193.392V20.4121C193.392 16.1621 191.15 13.7881 187.133 13.7881C184.394 13.7881 182.65 14.9502 181.754 16.9258H181.488V14.1035H178.766V32ZM205.245 32.3154C207.719 32.3154 209.844 31.1367 210.973 29.1445H211.238V32H213.961V6.99805H211.105V16.9258H210.856C209.844 14.9668 207.735 13.7881 205.245 13.7881C200.696 13.7881 197.725 17.4404 197.725 23.0518C197.725 28.6797 200.663 32.3154 205.245 32.3154ZM205.909 16.3613C209.146 16.3613 211.172 18.9512 211.172 23.0518C211.172 27.1855 209.163 29.7422 205.909 29.7422C202.639 29.7422 200.68 27.2354 200.68 23.0518C200.68 18.8848 202.655 16.3613 205.909 16.3613Z" fill="#292929"/>
<line x1="2" y1="67.5" x2="896" y2="67.4999" stroke="black"/>
</svg>
