<svg width="896" height="68" viewBox="0 0 896 68" fill="none" xmlns="http://www.w3.org/2000/svg">
<path d="M6.04297 10.7002H11.8037C14.8916 10.7002 16.751 12.4102 16.751 15.2822C16.751 18.2207 15.0078 19.8643 11.9365 19.8643H6.04297V10.7002ZM6.04297 22.5205H11.9365L17.0664 32H20.5693L15.0244 22.0557C18.0293 21.1094 19.8389 18.5195 19.8389 15.1826C19.8389 10.8662 16.8174 8.04395 12.2021 8.04395H3.05469V32H6.04297V22.5205ZM30.4141 29.8086C28.3389 29.8086 26.7949 28.7461 26.7949 26.9199C26.7949 25.127 27.9902 24.1807 30.7129 23.998L35.5273 23.6826V25.3262C35.5273 27.8828 33.3525 29.8086 30.4141 29.8086ZM29.8828 32.3154C32.2734 32.3154 34.2324 31.2695 35.3945 29.3604H35.6602V32H38.3828V19.748C38.3828 16.0293 35.9424 13.7881 31.5762 13.7881C27.7578 13.7881 24.9355 15.6807 24.5537 18.5527H27.4424C27.8408 17.1416 29.335 16.3281 31.4766 16.3281C34.1494 16.3281 35.5273 17.54 35.5273 19.748V21.375L30.3643 21.6904C26.1973 21.9395 23.8398 23.7822 23.8398 26.9863C23.8398 30.2568 26.4131 32.3154 29.8828 32.3154ZM44.8574 9.47168V14.1035H41.9688V16.4941H44.8574V27.3516C44.8574 30.7715 46.335 32.1328 50.0205 32.1328C50.585 32.1328 51.1328 32.0664 51.6973 31.9668V29.5596C51.166 29.6094 50.8838 29.626 50.3691 29.626C48.5098 29.626 47.7129 28.7295 47.7129 26.6211V16.4941H51.6973V14.1035H47.7129V9.47168H44.8574ZM62.8867 16.3115C65.7256 16.3115 67.6182 18.4033 67.6846 21.5742H57.8232C58.0391 18.4033 60.0312 16.3115 62.8867 16.3115ZM67.6016 27.3682C66.8545 28.9453 65.2939 29.792 62.9863 29.792C59.9482 29.792 57.9727 27.5508 57.8232 24.0146V23.8818H70.6895V22.7861C70.6895 17.2246 67.751 13.7881 62.9199 13.7881C58.0059 13.7881 54.8516 17.4404 54.8516 23.0684C54.8516 28.7295 57.9561 32.3154 62.9199 32.3154C66.8379 32.3154 69.5938 30.4395 70.457 27.3682H67.6016ZM99.2441 14.1035H96.3887V24.6953C96.3887 27.833 94.6621 29.709 91.5078 29.709C88.6523 29.709 87.457 28.2148 87.457 24.9941V14.1035H84.6016V25.6914C84.6016 29.9248 86.6934 32.3154 90.7109 32.3154C93.4502 32.3154 95.3594 31.1865 96.2559 29.1943H96.5215V32H99.2441V14.1035ZM104.208 19.001C104.208 21.5908 105.735 23.0352 109.089 23.8486L112.16 24.5957C114.069 25.0605 114.999 25.8906 114.999 27.1191C114.999 28.7627 113.272 29.9082 110.865 29.9082C108.574 29.9082 107.146 28.9453 106.665 27.4346H103.727C104.042 30.4062 106.781 32.3154 110.766 32.3154C114.833 32.3154 117.938 30.1074 117.938 26.9033C117.938 24.3301 116.311 22.8691 112.94 22.0557L110.185 21.3916C108.076 20.877 107.08 20.1133 107.08 18.8848C107.08 17.291 108.74 16.2119 110.865 16.2119C113.023 16.2119 114.418 17.1582 114.8 18.5859H117.622C117.24 15.6475 114.634 13.7881 110.882 13.7881C107.08 13.7881 104.208 16.0293 104.208 19.001Z" fill="#292929"/>
<line x1="2" y1="67.5" x2="896" y2="67.4999" stroke="black"/>
</svg>
